<svg width="19" height="22" viewBox="0 0 19 22" fill="none" xmlns="http://www.w3.org/2000/svg">
<path d="M5.1084 8.67802V7.71827V4.83901C5.1084 2.71878 6.90133 1 9.11301 1C11.3247 1 13.1176 2.71878 13.1176 4.83901V7.71827V8.67802" stroke="white" stroke-width="2" stroke-linecap="round"/>
<path fill-rule="evenodd" clip-rule="evenodd" d="M3.44565 5.60681H14.7807C15.3563 5.60681 15.8423 6.03732 15.9155 6.61206L17.1984 16.6845C17.4395 18.5772 16.1106 20.3082 14.2303 20.5509C14.0855 20.5696 13.9397 20.5789 13.7938 20.5789H4.43253C2.53679 20.5789 1 19.032 1 17.1238C1 16.9769 1.00931 16.8302 1.02787 16.6845L2.31076 6.61206C2.38396 6.03732 2.86999 5.60681 3.44565 5.60681Z" stroke="white" stroke-width="2" stroke-linejoin="round"/>
</svg>
