<svg width="24" height="25" viewBox="0 0 24 25" fill="none" xmlns="http://www.w3.org/2000/svg">
<circle cx="12" cy="12.4033" r="12" fill="url(#paint0_linear)"/>
<path d="M14.8672 6.0033H9.13187C7.18418 6.0033 5.59961 7.58795 5.59961 9.53563V15.271C5.59961 17.2187 7.18418 18.8033 9.13187 18.8033H14.8672C16.815 18.8033 18.3996 17.2186 18.3996 15.271V9.53563C18.3997 7.58795 16.815 6.0033 14.8672 6.0033ZM17.264 15.271C17.264 16.5925 16.1888 17.6676 14.8673 17.6676H9.13187C7.8104 17.6677 6.73529 16.5925 6.73529 15.271V9.53563C6.73529 8.21416 7.8104 7.13897 9.13187 7.13897H14.8672C16.1887 7.13897 17.2639 8.21416 17.2639 9.53563V15.271H17.264Z" fill="white"/>
<path d="M11.9996 9.10521C10.1809 9.10521 8.70137 10.5848 8.70137 12.4034C8.70137 14.222 10.1809 15.7015 11.9996 15.7015C13.8183 15.7015 15.2978 14.222 15.2978 12.4034C15.2978 10.5848 13.8183 9.10521 11.9996 9.10521ZM11.9996 14.5658C10.8072 14.5658 9.83705 13.5958 9.83705 12.4034C9.83705 11.2109 10.8071 10.2408 11.9996 10.2408C13.1921 10.2408 14.1622 11.2109 14.1622 12.4034C14.1622 13.5958 13.192 14.5658 11.9996 14.5658Z" fill="white"/>
<path d="M15.4362 8.14223C15.2174 8.14223 15.0024 8.23081 14.8479 8.38602C14.6926 8.54048 14.6033 8.7555 14.6033 8.97506C14.6033 9.19395 14.6927 9.40889 14.8479 9.5641C15.0023 9.71855 15.2174 9.80789 15.4362 9.80789C15.6557 9.80789 15.87 9.71855 16.0252 9.5641C16.1804 9.40889 16.269 9.19387 16.269 8.97506C16.269 8.7555 16.1804 8.54048 16.0252 8.38602C15.8708 8.23081 15.6557 8.14223 15.4362 8.14223Z" fill="white"/>
<defs>
<linearGradient id="paint0_linear" x1="12" y1="0.40332" x2="12" y2="24.4033" gradientUnits="userSpaceOnUse">
<stop stop-color="#5456B7"/>
<stop offset="0.520833" stop-color="#BD456B"/>
<stop offset="1" stop-color="#F2D085"/>
</linearGradient>
</defs>
</svg>
