<svg width="24" height="25" viewBox="0 0 24 25" fill="none" xmlns="http://www.w3.org/2000/svg">
<circle cx="12" cy="12.4033" r="12" fill="black"/>
<path d="M13.7143 8.1747V7.60327H12.5714V13.889C12.5714 14.8344 11.8026 15.6033 10.8571 15.6033C9.91169 15.6033 9.14286 14.8344 9.14286 13.889C9.14286 12.9435 9.91169 12.1747 10.8571 12.1747H11.4286V11.0318H10.8571C9.28167 11.0318 8 12.3135 8 13.889C8 15.4645 9.28167 16.7461 10.8571 16.7461C12.4326 16.7461 13.7143 15.4645 13.7143 13.889V10.455C14.1925 10.8153 14.7849 11.0318 15.4286 11.0318H16V9.88899H15.4286C14.4831 9.88899 13.7143 9.12015 13.7143 8.1747Z" fill="white"/>
</svg>
